<svg width="25" height="25" viewBox="0 0 25 25" fill="none" xmlns="http://www.w3.org/2000/svg">
<g clip-path="url(#clip0)">
<path d="M23.8637 11.3636H3.87978L7.62168 7.62165C8.06547 7.17794 8.06547 6.4584 7.62168 6.01461C7.17797 5.5709 6.45842 5.5709 6.01463 6.01461L0.332811 11.6964C-0.110978 12.1401 -0.110978 12.8597 0.332811 13.3035L6.01463 18.9853C6.2366 19.2072 6.52736 19.3182 6.81819 19.3182C7.10903 19.3182 7.39986 19.2072 7.62168 18.9853C8.06547 18.5416 8.06547 17.822 7.62168 17.3782L3.87978 13.6364H23.8637C24.4912 13.6364 25 13.1276 25 12.5C25 11.8724 24.4912 11.3636 23.8637 11.3636Z" fill="black" fill-opacity="0.7"/>
</g>
<defs>
<clipPath id="clip0">
<rect width="25" height="25" fill="white"/>
</clipPath>
</defs>
</svg>
