<svg width="25" height="25" viewBox="0 0 25 25" fill="none" xmlns="http://www.w3.org/2000/svg">
<circle cx="12.5" cy="12.5" r="12.5" fill="#80C1FE"/>
<g clip-path="url(#clip0)">
<path d="M17.6321 9.42059C17.3628 9.55085 17.2502 9.87485 17.3804 10.144C17.7363 10.8791 17.9167 11.6715 17.9167 12.5C17.9167 15.4867 15.4867 17.9167 12.5 17.9167C9.5133 17.9167 7.08333 15.4867 7.08333 12.5C7.08333 9.5133 9.5133 7.08333 12.5 7.08333C13.7377 7.08333 14.9003 7.48747 15.8627 8.25196C16.0961 8.43829 16.4374 8.39928 16.6237 8.16508C16.8101 7.93101 16.771 7.59009 16.5367 7.40402C15.3974 6.49856 13.9638 6 12.5 6C8.91609 6 6 8.91609 6 12.5C6 16.0839 8.91609 19 12.5 19C16.0839 19 19 16.0839 19 12.5C19 11.5069 18.7831 10.5551 18.3554 9.67225C18.2255 9.40248 17.9004 9.29007 17.6321 9.42059Z" fill="white" fill-opacity="0.7"/>
<path d="M12.5 8.16667C12.201 8.16667 11.9583 8.40933 11.9583 8.70833V12.5C11.9583 12.799 12.201 13.0417 12.5 13.0417H15.2083C15.5073 13.0417 15.75 12.799 15.75 12.5C15.75 12.201 15.5073 11.9583 15.2083 11.9583H13.0416V8.70833C13.0416 8.40933 12.799 8.16667 12.5 8.16667Z" fill="white" fill-opacity="0.7"/>
</g>
<defs>
<clipPath id="clip0">
<rect x="6" y="6" width="13" height="13" fill="white"/>
</clipPath>
</defs>
</svg>
