<svg width="25" height="25" viewBox="0 0 25 25" fill="none" xmlns="http://www.w3.org/2000/svg">
<circle cx="12.5" cy="12.5" r="12.5" fill="#80C1FE"/>
<path d="M16.0469 11.3906C16.3058 11.3906 16.5156 11.1808 16.5156 10.9219C16.5156 10.663 16.3058 10.4531 16.0469 10.4531C15.788 10.4531 15.5781 10.663 15.5781 10.9219C15.5781 11.1808 15.788 11.3906 16.0469 11.3906Z" fill="white" fill-opacity="0.7"/>
<path d="M17.125 6.9375H16.5156V6.46875C16.5156 6.20986 16.3058 6 16.0469 6C15.788 6 15.5781 6.20986 15.5781 6.46875V6.9375H13.4453V6.46875C13.4453 6.20986 13.2355 6 12.9766 6C12.7177 6 12.5078 6.20986 12.5078 6.46875V6.9375H10.3984V6.46875C10.3984 6.20986 10.1886 6 9.92969 6C9.6708 6 9.46094 6.20986 9.46094 6.46875V6.9375H8.875C7.84113 6.9375 7 7.77863 7 8.8125V16.125C7 17.1589 7.84113 18 8.875 18H12.4609C12.7198 18 12.9297 17.7901 12.9297 17.5312C12.9297 17.2724 12.7198 17.0625 12.4609 17.0625H8.875C8.35806 17.0625 7.9375 16.6419 7.9375 16.125V8.8125C7.9375 8.29556 8.35806 7.875 8.875 7.875H9.46094V8.34375C9.46094 8.60264 9.6708 8.8125 9.92969 8.8125C10.1886 8.8125 10.3984 8.60264 10.3984 8.34375V7.875H12.5078V8.34375C12.5078 8.60264 12.7177 8.8125 12.9766 8.8125C13.2355 8.8125 13.4453 8.60264 13.4453 8.34375V7.875H15.5781V8.34375C15.5781 8.60264 15.788 8.8125 16.0469 8.8125C16.3058 8.8125 16.5156 8.60264 16.5156 8.34375V7.875H17.125C17.6419 7.875 18.0625 8.29556 18.0625 8.8125V11.4844C18.0625 11.7433 18.2724 11.9531 18.5312 11.9531C18.7901 11.9531 19 11.7433 19 11.4844V8.8125C19 7.77863 18.1589 6.9375 17.125 6.9375Z" fill="white" fill-opacity="0.7"/>
<path d="M16.1641 12.3281C14.6003 12.3281 13.3281 13.6003 13.3281 15.1641C13.3281 16.7278 14.6003 18 16.1641 18C17.7278 18 19 16.7278 19 15.1641C19 13.6003 17.7278 12.3281 16.1641 12.3281ZM16.1641 17.0625C15.1173 17.0625 14.2656 16.2109 14.2656 15.1641C14.2656 14.1172 15.1173 13.2656 16.1641 13.2656C17.2109 13.2656 18.0625 14.1172 18.0625 15.1641C18.0625 16.2109 17.2109 17.0625 16.1641 17.0625Z" fill="white" fill-opacity="0.7"/>
<path d="M16.8438 14.6953H16.6328V14.2031C16.6328 13.9442 16.423 13.7344 16.1641 13.7344C15.9052 13.7344 15.6953 13.9442 15.6953 14.2031V15.1641C15.6953 15.423 15.9052 15.6328 16.1641 15.6328H16.8438C17.1026 15.6328 17.3125 15.423 17.3125 15.1641C17.3125 14.9052 17.1026 14.6953 16.8438 14.6953Z" fill="white" fill-opacity="0.7"/>
<path d="M14.0078 11.3906C14.2667 11.3906 14.4766 11.1808 14.4766 10.9219C14.4766 10.663 14.2667 10.4531 14.0078 10.4531C13.7489 10.4531 13.5391 10.663 13.5391 10.9219C13.5391 11.1808 13.7489 11.3906 14.0078 11.3906Z" fill="white" fill-opacity="0.7"/>
<path d="M11.9688 13.4297C12.2276 13.4297 12.4375 13.2198 12.4375 12.9609C12.4375 12.7021 12.2276 12.4922 11.9688 12.4922C11.7099 12.4922 11.5 12.7021 11.5 12.9609C11.5 13.2198 11.7099 13.4297 11.9688 13.4297Z" fill="white" fill-opacity="0.7"/>
<path d="M9.92969 11.3906C10.1886 11.3906 10.3984 11.1808 10.3984 10.9219C10.3984 10.663 10.1886 10.4531 9.92969 10.4531C9.6708 10.4531 9.46094 10.663 9.46094 10.9219C9.46094 11.1808 9.6708 11.3906 9.92969 11.3906Z" fill="white" fill-opacity="0.7"/>
<path d="M9.92969 13.4297C10.1886 13.4297 10.3984 13.2198 10.3984 12.9609C10.3984 12.7021 10.1886 12.4922 9.92969 12.4922C9.6708 12.4922 9.46094 12.7021 9.46094 12.9609C9.46094 13.2198 9.6708 13.4297 9.92969 13.4297Z" fill="white" fill-opacity="0.7"/>
<path d="M9.92969 15.4688C10.1886 15.4688 10.3984 15.2589 10.3984 15C10.3984 14.7411 10.1886 14.5312 9.92969 14.5312C9.6708 14.5312 9.46094 14.7411 9.46094 15C9.46094 15.2589 9.6708 15.4688 9.92969 15.4688Z" fill="white" fill-opacity="0.7"/>
<path d="M11.9688 15.4688C12.2276 15.4688 12.4375 15.2589 12.4375 15C12.4375 14.7411 12.2276 14.5312 11.9688 14.5312C11.7099 14.5312 11.5 14.7411 11.5 15C11.5 15.2589 11.7099 15.4688 11.9688 15.4688Z" fill="white" fill-opacity="0.7"/>
<path d="M11.9688 11.3906C12.2276 11.3906 12.4375 11.1808 12.4375 10.9219C12.4375 10.663 12.2276 10.4531 11.9688 10.4531C11.7099 10.4531 11.5 10.663 11.5 10.9219C11.5 11.1808 11.7099 11.3906 11.9688 11.3906Z" fill="white" fill-opacity="0.7"/>
</svg>
