<svg width="24" height="24" viewBox="0 0 24 24" fill="none" xmlns="http://www.w3.org/2000/svg">
<g clip-path="url(#clip0)">
<path d="M2 13.5L0.5 11.5L12 0.5L23 11V13L20.5 13.5V23H14.5V16.5L12 15.5L9.5 16.5L8.5 23.5H5L3 21.5V13.5H2Z" fill="#4AA7FD"/>
<path d="M23.4 10.392C23.3993 10.3914 23.3987 10.3907 23.3982 10.3902L13.608 0.600404C13.1907 0.182923 12.6359 -0.046875 12.0458 -0.046875C11.4556 -0.046875 10.9008 0.182923 10.4833 0.600404L0.698345 10.3852C0.695049 10.3885 0.69157 10.392 0.688457 10.3953C-0.168479 11.2572 -0.167014 12.6555 0.692668 13.5152C1.08543 13.9082 1.60399 14.1356 2.15861 14.1596C2.18132 14.1618 2.20402 14.1629 2.22691 14.1629H2.61693V21.3674C2.61693 22.7932 3.77709 23.9532 5.20293 23.9532H9.03314C9.42151 23.9532 9.73627 23.6382 9.73627 23.25V17.6016C9.73627 16.951 10.2656 16.4218 10.9162 16.4218H13.1754C13.8259 16.4218 14.3551 16.951 14.3551 17.6016V23.25C14.3551 23.6382 14.6699 23.9532 15.0582 23.9532H18.8884C20.3145 23.9532 21.4745 22.7932 21.4745 21.3674V14.1629H21.8363C22.4262 14.1629 22.981 13.9331 23.3987 13.5154C24.2593 12.6544 24.2597 11.2535 23.4 10.392ZM22.4043 12.5211C22.2525 12.6729 22.0507 12.7566 21.8363 12.7566H20.7713C20.383 12.7566 20.0682 13.0714 20.0682 13.4597V21.3674C20.0682 22.0177 19.539 22.5469 18.8884 22.5469H15.7614V17.6016C15.7614 16.1758 14.6014 15.0156 13.1754 15.0156H10.9162C9.49017 15.0156 8.33001 16.1758 8.33001 17.6016V22.5469H5.20293C4.55254 22.5469 4.02318 22.0177 4.02318 21.3674V13.4597C4.02318 13.0714 3.70842 12.7566 3.32005 12.7566H2.27342C2.26243 12.7559 2.25163 12.7553 2.24046 12.7552C2.03099 12.7515 1.83452 12.6684 1.6873 12.521C1.37419 12.2079 1.37419 11.6983 1.6873 11.385C1.68748 11.385 1.68748 11.3848 1.68767 11.3846L1.68822 11.3841L11.478 1.59467C11.6296 1.44287 11.8312 1.35938 12.0458 1.35938C12.2602 1.35938 12.4618 1.44287 12.6136 1.59467L22.4012 11.382C22.4026 11.3835 22.4043 11.385 22.4057 11.3864C22.7172 11.7001 22.7166 12.2086 22.4043 12.5211Z" fill="#4663C1"/>
<path fill-rule="evenodd" clip-rule="evenodd" d="M20 19.75V16.25C20 16.6642 20.3358 17 20.75 17C21.1642 17 21.5 16.6642 21.5 16.25V19.75C21.5 19.3358 21.1642 19 20.75 19C20.3358 19 20 19.3358 20 19.75Z" fill="white"/>
</g>
<defs>
<clipPath id="clip0">
<rect width="24" height="24" fill="white"/>
</clipPath>
</defs>
</svg>
