<svg width="25" height="25" viewBox="0 0 25 25" fill="none" xmlns="http://www.w3.org/2000/svg">
<circle cx="12.5" cy="12.5" r="12.5" fill="#80C1FE"/>
<g clip-path="url(#clip0)">
<path d="M12.2815 5.00389C9.2406 5.108 6.72951 7.47211 6.43859 10.4977C6.38347 11.0795 6.40797 11.6675 6.51821 12.2371C6.52127 12.2616 6.53352 12.3289 6.55802 12.4361C6.64989 12.8495 6.78769 13.2507 6.96531 13.6365C7.58389 15.0973 8.93437 17.345 11.8558 19.7673C12.0365 19.9173 12.2662 20 12.4989 20C12.7347 20 12.9613 19.9173 13.142 19.7673C16.0604 17.345 17.4108 15.0973 18.0325 13.6365C18.2101 13.2507 18.3479 12.8465 18.4398 12.4422C18.4551 12.3749 18.4704 12.3106 18.4796 12.2462C18.5531 11.8665 18.5898 11.4776 18.5898 11.0918C18.5898 7.65891 15.7327 4.88139 12.2815 5.00389ZM17.4476 12.0472C17.4476 12.0533 17.4445 12.0594 17.4445 12.0625C17.4415 12.0717 17.4353 12.1176 17.4139 12.2034C17.3373 12.5464 17.221 12.8832 17.074 13.2017C17.0709 13.2078 17.0679 13.2109 17.0679 13.217C16.4983 14.5675 15.2427 16.6529 12.4989 18.9343C9.75507 16.6498 8.49952 14.5644 7.92993 13.217C7.92687 13.2109 7.92687 13.2078 7.92381 13.2017C7.77682 12.8801 7.66045 12.5464 7.58389 12.1972C7.56858 12.1268 7.55939 12.0839 7.55633 12.0686C7.55633 12.0625 7.55327 12.0533 7.55327 12.0472C7.4614 11.5725 7.43996 11.0826 7.4859 10.5987C7.72782 8.09682 9.80406 6.14306 12.3213 6.05426C12.3825 6.0512 12.4407 6.0512 12.502 6.0512C15.2795 6.0512 17.5425 8.31118 17.5425 11.0918C17.5394 11.4102 17.5088 11.7318 17.4476 12.0472Z" fill="white"/>
<path d="M12.499 7.92532C10.7198 7.92532 9.26825 9.37379 9.26825 11.156C9.26825 12.9383 10.7198 14.3837 12.499 14.3837C14.2782 14.3837 15.7297 12.9352 15.7297 11.153C15.7297 9.37072 14.2782 7.92532 12.499 7.92532ZM12.499 13.3333C11.2986 13.3333 10.3186 12.3565 10.3186 11.153C10.3186 9.95256 11.2955 8.97262 12.499 8.97262C13.6994 8.97262 14.6793 9.9495 14.6793 11.153C14.6793 12.3565 13.6994 13.3333 12.499 13.3333Z" fill="white"/>
</g>
<defs>
<clipPath id="clip0">
<rect x="5" y="5" width="15" height="15" fill="white"/>
</clipPath>
</defs>
</svg>
