<svg width="30" height="30" viewBox="0 0 30 30" fill="none" xmlns="http://www.w3.org/2000/svg">
<circle cx="15" cy="15" r="15" fill="#80C1FE"/>
<g clip-path="url(#clip0)">
<path d="M14.9952 23C10.8882 23 7.54688 19.6589 7.54688 15.5517C7.54688 12.2065 9.79715 9.25267 13.0194 8.36827C13.3494 8.27928 13.6913 8.47196 13.7823 8.80292C13.8728 9.13334 13.6786 9.47515 13.3479 9.56551C10.6634 10.3026 8.78819 12.764 8.78819 15.5517C8.78819 18.9739 11.5725 21.7587 14.9952 21.7587C18.4177 21.7587 21.2021 18.9739 21.2021 15.5517C21.2021 12.8296 19.3824 10.3839 16.7772 9.60424C16.4487 9.50605 16.2623 9.15998 16.3605 8.83149C16.459 8.50354 16.8057 8.31746 17.133 8.4151C20.2597 9.35086 22.4434 12.2852 22.4434 15.5517C22.4434 19.6589 19.1022 23 14.9952 23Z" fill="white"/>
<path d="M14.9952 15.8C14.6525 15.8 14.3745 15.4698 14.3745 15.0617V6.93851C14.3745 6.53021 14.6525 6.2 14.9952 6.2C15.338 6.2 15.6158 6.53021 15.6158 6.93851V15.0617C15.6158 15.4698 15.338 15.8 14.9952 15.8Z" fill="white"/>
</g>
<defs>
<clipPath id="clip0">
<rect x="6" y="5" width="18" height="18" fill="white"/>
</clipPath>
</defs>
</svg>
