<svg width="100" height="102" viewBox="0 0 100 102" fill="none" xmlns="http://www.w3.org/2000/svg">
<g clip-path="url(#clip0)">
<path fill-rule="evenodd" clip-rule="evenodd" d="M48.6477 70.6022L83.5942 29.0691C83.7442 28.8453 83.9294 28.6052 84.1518 28.3482C89.866 21.7411 86.5326 15.0298 84.1518 12.5L84.3544 12.6286C75.4169 4.7675 63.6924 0 50.854 0C22.8282 0 0.108765 22.7195 0.108765 50.7455C0.108765 78.7714 22.8282 101.491 50.854 101.491C74.3147 101.491 94.0571 85.5701 99.866 63.9433C100.348 59.958 96.7888 60.9853 94.866 62.0536V61.9071C80.1861 67.5929 60.6107 70.054 48.6477 70.6022ZM39.8225 44.1264C47.1335 44.1264 53.0602 38.1996 53.0602 30.8885C53.0602 23.5774 47.1335 17.6505 39.8225 17.6505C32.5114 17.6505 26.5846 23.5774 26.5846 30.8885C26.5846 38.1996 32.5114 44.1264 39.8225 44.1264Z" fill="#0779E4"/>
<path fill-rule="evenodd" clip-rule="evenodd" d="M83.5942 29.0691L48.6478 70.6022C60.6107 70.054 80.1862 67.5929 94.8661 61.9071V62.0536C96.7889 60.9853 100.348 59.958 99.8661 63.9433C94.0572 85.5701 74.3148 101.491 50.854 101.491C41.6568 101.491 33.0308 99.0438 25.5919 94.7656C17.9663 85.4228 13.3929 73.4911 13.3929 60.4911C13.3929 30.5346 37.6774 6.25 67.634 6.25C70.6723 6.25 73.6523 6.49982 76.5545 6.98004C79.3353 8.61638 81.946 10.5102 84.3545 12.6286L84.1518 12.5C86.5326 15.0298 89.8661 21.7411 84.1518 28.3482C83.9295 28.6052 83.7442 28.8453 83.5942 29.0691ZM53.0603 30.8885C53.0603 38.1996 47.1335 44.1264 39.8226 44.1264C32.5115 44.1264 26.5847 38.1996 26.5847 30.8885C26.5847 23.5774 32.5115 17.6505 39.8226 17.6505C47.1335 17.6505 53.0603 23.5774 53.0603 30.8885Z" fill="#1784EA"/>
<path fill-rule="evenodd" clip-rule="evenodd" d="M83.5942 29.0691L48.6478 70.6022C60.6107 70.054 80.1862 67.5929 94.8661 61.9072V62.0536C96.7889 60.9853 100.348 59.9581 99.8661 63.9433C94.7353 83.0442 78.7362 97.6938 58.9063 100.855C45.7969 92.8076 37.0536 78.3402 37.0536 61.8304C37.0536 55.5447 38.321 49.5554 40.614 44.1031C47.5567 43.6938 53.0603 37.9339 53.0603 30.8885C53.0603 29.7005 52.904 28.5489 52.6103 27.4535C60.6688 20.3682 71.2389 16.0714 82.8125 16.0714C84.0402 16.0714 85.2567 16.1198 86.4598 16.2147C87.7473 19.4462 87.9813 23.9206 84.1518 28.3482C83.9295 28.6052 83.7442 28.8453 83.5942 29.0691Z" fill="#2A92F3"/>
<path fill-rule="evenodd" clip-rule="evenodd" d="M60.5893 69.6201C63.4348 79.808 71.0411 88.0094 80.8589 91.6741C90.0178 84.9482 96.8366 75.2219 99.8661 63.9433C100.348 59.958 96.7888 60.9853 94.8661 62.0536V61.9071C84.417 65.954 71.4879 68.3674 60.5893 69.6201ZM83.771 28.8198C70.6549 32.3641 60.7732 43.7831 59.5116 57.6911L83.5942 29.0691C83.6487 28.9881 83.7076 28.905 83.771 28.8198Z" fill="#419EF4"/>
</g>
<defs>
<clipPath id="clip0">
<rect width="100" height="101.786" fill="white"/>
</clipPath>
</defs>
</svg>
