<svg width="20" height="20" viewBox="0 0 20 20" fill="none" xmlns="http://www.w3.org/2000/svg">
<path d="M8.24324 16.4718C3.70195 16.4718 0.00735474 12.7772 0.00735474 8.23588C0.00735474 3.69459 3.70195 0 8.24324 0C12.7845 0 16.4791 3.69459 16.4791 8.23588C16.4791 12.7772 12.7845 16.4718 8.24324 16.4718ZM8.24324 1.5613C4.56285 1.5613 1.56866 4.5555 1.56866 8.23588C1.56866 11.9163 4.56285 14.9105 8.24324 14.9105C11.9236 14.9105 14.9178 11.9163 14.9178 8.23588C14.9178 4.5555 11.9236 1.5613 8.24324 1.5613ZM19.7634 19.7713C20.0683 19.4665 20.0683 18.9722 19.7634 18.6673L16.27 15.1739C15.9651 14.869 15.4708 14.869 15.166 15.1739C14.8611 15.4788 14.8611 15.9731 15.166 16.2779L18.6594 19.7713C18.8118 19.9238 19.0116 20 19.2114 20C19.4112 20 19.611 19.9238 19.7634 19.7713Z" fill="#CCCCCC"/>
</svg>
